G04 #@! TF.FileFunction,Soldermask,Bot*
%FSLAX46Y46*%
G04 Gerber Fmt 4.6, Leading zero omitted, Abs format (unit mm)*
G04 Created by KiCad (PCBNEW 4.0.2-stable) date 3/16/2016 10:41:28 PM*
%MOMM*%
G01*
G04 APERTURE LIST*
%ADD10C,0.100000*%
G04 APERTURE END LIST*
D10*
G36*
X155137284Y-86869196D02*
X155338998Y-86910602D01*
X155528824Y-86990398D01*
X155699537Y-87105545D01*
X155844628Y-87251653D01*
X155958586Y-87423172D01*
X156037052Y-87613544D01*
X156076943Y-87815014D01*
X156076943Y-87815021D01*
X156077046Y-87815542D01*
X156073761Y-88050737D01*
X156073645Y-88051246D01*
X156073645Y-88051265D01*
X156028144Y-88251536D01*
X155944391Y-88439647D01*
X155825692Y-88607915D01*
X155676575Y-88749917D01*
X155502713Y-88860253D01*
X155310731Y-88934718D01*
X155107945Y-88970475D01*
X154902073Y-88966161D01*
X154700964Y-88921945D01*
X154512267Y-88839505D01*
X154343180Y-88721987D01*
X154200136Y-88573861D01*
X154088592Y-88400777D01*
X154012788Y-88209320D01*
X153975617Y-88006791D01*
X153978493Y-87800889D01*
X154021305Y-87599472D01*
X154102421Y-87410214D01*
X154218762Y-87240303D01*
X154365879Y-87096235D01*
X154538187Y-86983480D01*
X154729106Y-86906343D01*
X154931375Y-86867758D01*
X155137284Y-86869196D01*
X155137284Y-86869196D01*
G37*
G36*
X143137284Y-86869196D02*
X143338998Y-86910602D01*
X143528824Y-86990398D01*
X143699537Y-87105545D01*
X143844628Y-87251653D01*
X143958586Y-87423172D01*
X144037052Y-87613544D01*
X144076943Y-87815014D01*
X144076943Y-87815021D01*
X144077046Y-87815542D01*
X144073761Y-88050737D01*
X144073645Y-88051246D01*
X144073645Y-88051265D01*
X144028144Y-88251536D01*
X143944391Y-88439647D01*
X143825692Y-88607915D01*
X143676575Y-88749917D01*
X143502713Y-88860253D01*
X143310731Y-88934718D01*
X143107945Y-88970475D01*
X142902073Y-88966161D01*
X142700964Y-88921945D01*
X142512267Y-88839505D01*
X142343180Y-88721987D01*
X142200136Y-88573861D01*
X142088592Y-88400777D01*
X142012788Y-88209320D01*
X141975617Y-88006791D01*
X141978493Y-87800889D01*
X142021305Y-87599472D01*
X142102421Y-87410214D01*
X142218762Y-87240303D01*
X142365879Y-87096235D01*
X142538187Y-86983480D01*
X142729106Y-86906343D01*
X142931375Y-86867758D01*
X143137284Y-86869196D01*
X143137284Y-86869196D01*
G37*
G36*
X161459225Y-86567825D02*
X161459243Y-86567831D01*
X161459295Y-86567836D01*
X161648716Y-86626471D01*
X161823140Y-86720782D01*
X161975924Y-86847176D01*
X162101248Y-87000838D01*
X162194339Y-87175916D01*
X162251650Y-87365742D01*
X162271000Y-87563084D01*
X162271000Y-87573043D01*
X162270924Y-87584009D01*
X162270922Y-87584022D01*
X162270901Y-87587102D01*
X162248798Y-87784154D01*
X162188842Y-87973161D01*
X162093315Y-88146922D01*
X161965858Y-88298820D01*
X161811324Y-88423069D01*
X161635600Y-88514935D01*
X161445379Y-88570920D01*
X161445325Y-88570925D01*
X161445308Y-88570930D01*
X161247914Y-88588894D01*
X161050775Y-88568175D01*
X161050757Y-88568169D01*
X161050705Y-88568164D01*
X160861284Y-88509529D01*
X160686860Y-88415218D01*
X160534076Y-88288824D01*
X160408752Y-88135162D01*
X160315661Y-87960084D01*
X160258350Y-87770258D01*
X160239000Y-87572916D01*
X160239000Y-87562957D01*
X160239076Y-87551991D01*
X160239078Y-87551978D01*
X160239099Y-87548898D01*
X160261202Y-87351846D01*
X160321158Y-87162839D01*
X160416685Y-86989078D01*
X160544142Y-86837180D01*
X160698676Y-86712931D01*
X160874400Y-86621065D01*
X161064621Y-86565080D01*
X161064675Y-86565075D01*
X161064692Y-86565070D01*
X161262086Y-86547106D01*
X161459225Y-86567825D01*
X161459225Y-86567825D01*
G37*
G36*
X164811000Y-88584000D02*
X162779000Y-88584000D01*
X162779000Y-86552000D01*
X164811000Y-86552000D01*
X164811000Y-88584000D01*
X164811000Y-88584000D01*
G37*
G36*
X146545270Y-84968929D02*
X146670142Y-84994562D01*
X146787655Y-85043960D01*
X146893333Y-85115241D01*
X146983153Y-85205689D01*
X147053696Y-85311866D01*
X147102271Y-85429716D01*
X147126926Y-85554236D01*
X147126926Y-85554248D01*
X147127028Y-85554764D01*
X147124995Y-85700361D01*
X147124879Y-85700870D01*
X147124879Y-85700889D01*
X147096757Y-85824666D01*
X147044910Y-85941118D01*
X146971432Y-86045279D01*
X146879119Y-86133187D01*
X146771489Y-86201491D01*
X146652643Y-86247589D01*
X146527109Y-86269724D01*
X146399664Y-86267054D01*
X146275170Y-86239682D01*
X146158355Y-86188647D01*
X146053682Y-86115898D01*
X145965130Y-86024199D01*
X145896079Y-85917054D01*
X145849153Y-85798532D01*
X145826142Y-85673157D01*
X145827923Y-85545692D01*
X145854424Y-85421008D01*
X145904642Y-85303843D01*
X145976658Y-85198667D01*
X146067736Y-85109476D01*
X146174402Y-85039676D01*
X146292588Y-84991925D01*
X146417802Y-84968039D01*
X146545270Y-84968929D01*
X146545270Y-84968929D01*
G37*
G36*
X148585270Y-84968929D02*
X148710142Y-84994562D01*
X148827655Y-85043960D01*
X148933333Y-85115241D01*
X149023153Y-85205689D01*
X149093696Y-85311866D01*
X149142271Y-85429716D01*
X149166926Y-85554236D01*
X149166926Y-85554248D01*
X149167028Y-85554764D01*
X149164995Y-85700361D01*
X149164879Y-85700870D01*
X149164879Y-85700889D01*
X149136757Y-85824666D01*
X149084910Y-85941118D01*
X149011432Y-86045279D01*
X148919119Y-86133187D01*
X148811489Y-86201491D01*
X148692643Y-86247589D01*
X148567109Y-86269724D01*
X148439664Y-86267054D01*
X148315170Y-86239682D01*
X148198355Y-86188647D01*
X148093682Y-86115898D01*
X148005130Y-86024199D01*
X147936079Y-85917054D01*
X147889153Y-85798532D01*
X147866142Y-85673157D01*
X147867923Y-85545692D01*
X147894424Y-85421008D01*
X147944642Y-85303843D01*
X148016658Y-85198667D01*
X148107736Y-85109476D01*
X148214402Y-85039676D01*
X148332588Y-84991925D01*
X148457802Y-84968039D01*
X148585270Y-84968929D01*
X148585270Y-84968929D01*
G37*
G36*
X150625270Y-84968929D02*
X150750142Y-84994562D01*
X150867655Y-85043960D01*
X150973333Y-85115241D01*
X151063153Y-85205689D01*
X151133696Y-85311866D01*
X151182271Y-85429716D01*
X151206926Y-85554236D01*
X151206926Y-85554248D01*
X151207028Y-85554764D01*
X151204995Y-85700361D01*
X151204879Y-85700870D01*
X151204879Y-85700889D01*
X151176757Y-85824666D01*
X151124910Y-85941118D01*
X151051432Y-86045279D01*
X150959119Y-86133187D01*
X150851489Y-86201491D01*
X150732643Y-86247589D01*
X150607109Y-86269724D01*
X150479664Y-86267054D01*
X150355170Y-86239682D01*
X150238355Y-86188647D01*
X150133682Y-86115898D01*
X150045130Y-86024199D01*
X149976079Y-85917054D01*
X149929153Y-85798532D01*
X149906142Y-85673157D01*
X149907923Y-85545692D01*
X149934424Y-85421008D01*
X149984642Y-85303843D01*
X150056658Y-85198667D01*
X150147736Y-85109476D01*
X150254402Y-85039676D01*
X150372588Y-84991925D01*
X150497802Y-84968039D01*
X150625270Y-84968929D01*
X150625270Y-84968929D01*
G37*
G36*
X151645270Y-82428929D02*
X151770142Y-82454562D01*
X151887655Y-82503960D01*
X151993333Y-82575241D01*
X152083153Y-82665689D01*
X152153696Y-82771866D01*
X152202271Y-82889716D01*
X152226926Y-83014236D01*
X152226926Y-83014248D01*
X152227028Y-83014764D01*
X152224995Y-83160361D01*
X152224879Y-83160870D01*
X152224879Y-83160889D01*
X152196757Y-83284666D01*
X152144910Y-83401118D01*
X152071432Y-83505279D01*
X151979119Y-83593187D01*
X151871489Y-83661491D01*
X151752643Y-83707589D01*
X151627109Y-83729724D01*
X151499664Y-83727054D01*
X151375170Y-83699682D01*
X151258355Y-83648647D01*
X151153682Y-83575898D01*
X151065130Y-83484199D01*
X150996079Y-83377054D01*
X150949153Y-83258532D01*
X150926142Y-83133157D01*
X150927923Y-83005692D01*
X150954424Y-82881008D01*
X151004642Y-82763843D01*
X151076658Y-82658667D01*
X151167736Y-82569476D01*
X151274402Y-82499676D01*
X151392588Y-82451925D01*
X151517802Y-82428039D01*
X151645270Y-82428929D01*
X151645270Y-82428929D01*
G37*
G36*
X149605270Y-82428929D02*
X149730142Y-82454562D01*
X149847655Y-82503960D01*
X149953333Y-82575241D01*
X150043153Y-82665689D01*
X150113696Y-82771866D01*
X150162271Y-82889716D01*
X150186926Y-83014236D01*
X150186926Y-83014248D01*
X150187028Y-83014764D01*
X150184995Y-83160361D01*
X150184879Y-83160870D01*
X150184879Y-83160889D01*
X150156757Y-83284666D01*
X150104910Y-83401118D01*
X150031432Y-83505279D01*
X149939119Y-83593187D01*
X149831489Y-83661491D01*
X149712643Y-83707589D01*
X149587109Y-83729724D01*
X149459664Y-83727054D01*
X149335170Y-83699682D01*
X149218355Y-83648647D01*
X149113682Y-83575898D01*
X149025130Y-83484199D01*
X148956079Y-83377054D01*
X148909153Y-83258532D01*
X148886142Y-83133157D01*
X148887923Y-83005692D01*
X148914424Y-82881008D01*
X148964642Y-82763843D01*
X149036658Y-82658667D01*
X149127736Y-82569476D01*
X149234402Y-82499676D01*
X149352588Y-82451925D01*
X149477802Y-82428039D01*
X149605270Y-82428929D01*
X149605270Y-82428929D01*
G37*
G36*
X147565270Y-82428929D02*
X147690142Y-82454562D01*
X147807655Y-82503960D01*
X147913333Y-82575241D01*
X148003153Y-82665689D01*
X148073696Y-82771866D01*
X148122271Y-82889716D01*
X148146926Y-83014236D01*
X148146926Y-83014248D01*
X148147028Y-83014764D01*
X148144995Y-83160361D01*
X148144879Y-83160870D01*
X148144879Y-83160889D01*
X148116757Y-83284666D01*
X148064910Y-83401118D01*
X147991432Y-83505279D01*
X147899119Y-83593187D01*
X147791489Y-83661491D01*
X147672643Y-83707589D01*
X147547109Y-83729724D01*
X147419664Y-83727054D01*
X147295170Y-83699682D01*
X147178355Y-83648647D01*
X147073682Y-83575898D01*
X146985130Y-83484199D01*
X146916079Y-83377054D01*
X146869153Y-83258532D01*
X146846142Y-83133157D01*
X146847923Y-83005692D01*
X146874424Y-82881008D01*
X146924642Y-82763843D01*
X146996658Y-82658667D01*
X147087736Y-82569476D01*
X147194402Y-82499676D01*
X147312588Y-82451925D01*
X147437802Y-82428039D01*
X147565270Y-82428929D01*
X147565270Y-82428929D01*
G37*
G36*
X155213580Y-62796712D02*
X155213597Y-62796717D01*
X155213651Y-62796723D01*
X155374658Y-62846563D01*
X155522919Y-62926727D01*
X155652785Y-63034162D01*
X155759311Y-63164775D01*
X155838438Y-63313592D01*
X155887153Y-63474943D01*
X155903600Y-63642684D01*
X155903600Y-63957436D01*
X155903538Y-63966280D01*
X155903516Y-63969374D01*
X155884728Y-64136869D01*
X155833765Y-64297524D01*
X155752568Y-64445222D01*
X155644229Y-64574335D01*
X155512876Y-64679946D01*
X155363510Y-64758032D01*
X155201823Y-64805619D01*
X155201776Y-64805623D01*
X155201750Y-64805631D01*
X155033978Y-64820898D01*
X154866420Y-64803288D01*
X154866403Y-64803283D01*
X154866349Y-64803277D01*
X154705342Y-64753437D01*
X154557081Y-64673273D01*
X154427215Y-64565838D01*
X154320689Y-64435225D01*
X154241562Y-64286408D01*
X154192847Y-64125057D01*
X154176400Y-63957316D01*
X154176400Y-63642564D01*
X154176462Y-63633720D01*
X154176462Y-63633716D01*
X154176484Y-63630626D01*
X154195272Y-63463131D01*
X154246235Y-63302476D01*
X154327432Y-63154778D01*
X154435771Y-63025665D01*
X154567124Y-62920054D01*
X154716490Y-62841968D01*
X154878177Y-62794381D01*
X154878224Y-62794377D01*
X154878250Y-62794369D01*
X155046022Y-62779102D01*
X155213580Y-62796712D01*
X155213580Y-62796712D01*
G37*
G36*
X152673580Y-62796712D02*
X152673597Y-62796717D01*
X152673651Y-62796723D01*
X152834658Y-62846563D01*
X152982919Y-62926727D01*
X153112785Y-63034162D01*
X153219311Y-63164775D01*
X153298438Y-63313592D01*
X153347153Y-63474943D01*
X153363600Y-63642684D01*
X153363600Y-63957436D01*
X153363538Y-63966280D01*
X153363516Y-63969374D01*
X153344728Y-64136869D01*
X153293765Y-64297524D01*
X153212568Y-64445222D01*
X153104229Y-64574335D01*
X152972876Y-64679946D01*
X152823510Y-64758032D01*
X152661823Y-64805619D01*
X152661776Y-64805623D01*
X152661750Y-64805631D01*
X152493978Y-64820898D01*
X152326420Y-64803288D01*
X152326403Y-64803283D01*
X152326349Y-64803277D01*
X152165342Y-64753437D01*
X152017081Y-64673273D01*
X151887215Y-64565838D01*
X151780689Y-64435225D01*
X151701562Y-64286408D01*
X151652847Y-64125057D01*
X151636400Y-63957316D01*
X151636400Y-63642564D01*
X151636462Y-63633720D01*
X151636462Y-63633716D01*
X151636484Y-63630626D01*
X151655272Y-63463131D01*
X151706235Y-63302476D01*
X151787432Y-63154778D01*
X151895771Y-63025665D01*
X152027124Y-62920054D01*
X152176490Y-62841968D01*
X152338177Y-62794381D01*
X152338224Y-62794377D01*
X152338250Y-62794369D01*
X152506022Y-62779102D01*
X152673580Y-62796712D01*
X152673580Y-62796712D01*
G37*
G36*
X150133580Y-62796712D02*
X150133597Y-62796717D01*
X150133651Y-62796723D01*
X150294658Y-62846563D01*
X150442919Y-62926727D01*
X150572785Y-63034162D01*
X150679311Y-63164775D01*
X150758438Y-63313592D01*
X150807153Y-63474943D01*
X150823600Y-63642684D01*
X150823600Y-63957436D01*
X150823538Y-63966280D01*
X150823516Y-63969374D01*
X150804728Y-64136869D01*
X150753765Y-64297524D01*
X150672568Y-64445222D01*
X150564229Y-64574335D01*
X150432876Y-64679946D01*
X150283510Y-64758032D01*
X150121823Y-64805619D01*
X150121776Y-64805623D01*
X150121750Y-64805631D01*
X149953978Y-64820898D01*
X149786420Y-64803288D01*
X149786403Y-64803283D01*
X149786349Y-64803277D01*
X149625342Y-64753437D01*
X149477081Y-64673273D01*
X149347215Y-64565838D01*
X149240689Y-64435225D01*
X149161562Y-64286408D01*
X149112847Y-64125057D01*
X149096400Y-63957316D01*
X149096400Y-63642564D01*
X149096462Y-63633720D01*
X149096462Y-63633716D01*
X149096484Y-63630626D01*
X149115272Y-63463131D01*
X149166235Y-63302476D01*
X149247432Y-63154778D01*
X149355771Y-63025665D01*
X149487124Y-62920054D01*
X149636490Y-62841968D01*
X149798177Y-62794381D01*
X149798224Y-62794377D01*
X149798250Y-62794369D01*
X149966022Y-62779102D01*
X150133580Y-62796712D01*
X150133580Y-62796712D01*
G37*
G36*
X158443600Y-64816000D02*
X156716400Y-64816000D01*
X156716400Y-62784000D01*
X158443600Y-62784000D01*
X158443600Y-64816000D01*
X158443600Y-64816000D01*
G37*
M02*
