G04 #@! TF.FileFunction,Copper,L2,Bot,Signal*
%FSLAX46Y46*%
G04 Gerber Fmt 4.6, Leading zero omitted, Abs format (unit mm)*
G04 Created by KiCad (PCBNEW 4.0.2-stable) date 3/16/2016 10:41:28 PM*
%MOMM*%
G01*
G04 APERTURE LIST*
%ADD10C,0.100000*%
%ADD11C,0.150000*%
%ADD12C,1.300000*%
%ADD13R,2.032000X2.032000*%
%ADD14O,2.032000X2.032000*%
%ADD15R,1.727200X2.032000*%
%ADD16O,1.727200X2.032000*%
%ADD17C,0.700000*%
%ADD18C,0.600000*%
%ADD19C,0.250000*%
%ADD20C,0.200000*%
G04 APERTURE END LIST*
D10*
D11*
X167427143Y-63216286D02*
X167474762Y-63168667D01*
X167522381Y-63025810D01*
X167522381Y-62930572D01*
X167474762Y-62787714D01*
X167379524Y-62692476D01*
X167284286Y-62644857D01*
X167093810Y-62597238D01*
X166950952Y-62597238D01*
X166760476Y-62644857D01*
X166665238Y-62692476D01*
X166570000Y-62787714D01*
X166522381Y-62930572D01*
X166522381Y-63025810D01*
X166570000Y-63168667D01*
X166617619Y-63216286D01*
X166522381Y-63549619D02*
X167522381Y-63787714D01*
X166808095Y-63978191D01*
X167522381Y-64168667D01*
X166522381Y-64406762D01*
X166522381Y-64692476D02*
X167522381Y-64930571D01*
X166808095Y-65121048D01*
X167522381Y-65311524D01*
X166522381Y-65549619D01*
X167427143Y-67263905D02*
X167474762Y-67216286D01*
X167522381Y-67073429D01*
X167522381Y-66978191D01*
X167474762Y-66835333D01*
X167379524Y-66740095D01*
X167284286Y-66692476D01*
X167093810Y-66644857D01*
X166950952Y-66644857D01*
X166760476Y-66692476D01*
X166665238Y-66740095D01*
X166570000Y-66835333D01*
X166522381Y-66978191D01*
X166522381Y-67073429D01*
X166570000Y-67216286D01*
X166617619Y-67263905D01*
X166522381Y-67549619D02*
X166522381Y-68121048D01*
X167522381Y-67835333D02*
X166522381Y-67835333D01*
X167522381Y-69025810D02*
X167046190Y-68692476D01*
X167522381Y-68454381D02*
X166522381Y-68454381D01*
X166522381Y-68835334D01*
X166570000Y-68930572D01*
X166617619Y-68978191D01*
X166712857Y-69025810D01*
X166855714Y-69025810D01*
X166950952Y-68978191D01*
X166998571Y-68930572D01*
X167046190Y-68835334D01*
X167046190Y-68454381D01*
X167522381Y-69930572D02*
X167522381Y-69454381D01*
X166522381Y-69454381D01*
X166522381Y-70882953D02*
X167522381Y-71216286D01*
X166522381Y-71549620D01*
X166522381Y-71787715D02*
X166522381Y-72406763D01*
X166903333Y-72073429D01*
X166903333Y-72216287D01*
X166950952Y-72311525D01*
X166998571Y-72359144D01*
X167093810Y-72406763D01*
X167331905Y-72406763D01*
X167427143Y-72359144D01*
X167474762Y-72311525D01*
X167522381Y-72216287D01*
X167522381Y-71930572D01*
X167474762Y-71835334D01*
X167427143Y-71787715D01*
X165347571Y-64914715D02*
X165395190Y-65057572D01*
X165442810Y-65105191D01*
X165538048Y-65152810D01*
X165680905Y-65152810D01*
X165776143Y-65105191D01*
X165823762Y-65057572D01*
X165871381Y-64962334D01*
X165871381Y-64581381D01*
X164871381Y-64581381D01*
X164871381Y-64914715D01*
X164919000Y-65009953D01*
X164966619Y-65057572D01*
X165061857Y-65105191D01*
X165157095Y-65105191D01*
X165252333Y-65057572D01*
X165299952Y-65009953D01*
X165347571Y-64914715D01*
X165347571Y-64581381D01*
X165871381Y-65581381D02*
X164871381Y-65581381D01*
X165871381Y-66152810D02*
X165299952Y-65724238D01*
X164871381Y-66152810D02*
X165442810Y-65581381D01*
X164966619Y-67295667D02*
X164919000Y-67343286D01*
X164871381Y-67438524D01*
X164871381Y-67676620D01*
X164919000Y-67771858D01*
X164966619Y-67819477D01*
X165061857Y-67867096D01*
X165157095Y-67867096D01*
X165299952Y-67819477D01*
X165871381Y-67248048D01*
X165871381Y-67867096D01*
X164871381Y-68486143D02*
X164871381Y-68581382D01*
X164919000Y-68676620D01*
X164966619Y-68724239D01*
X165061857Y-68771858D01*
X165252333Y-68819477D01*
X165490429Y-68819477D01*
X165680905Y-68771858D01*
X165776143Y-68724239D01*
X165823762Y-68676620D01*
X165871381Y-68581382D01*
X165871381Y-68486143D01*
X165823762Y-68390905D01*
X165776143Y-68343286D01*
X165680905Y-68295667D01*
X165490429Y-68248048D01*
X165252333Y-68248048D01*
X165061857Y-68295667D01*
X164966619Y-68343286D01*
X164919000Y-68390905D01*
X164871381Y-68486143D01*
X165871381Y-69771858D02*
X165871381Y-69200429D01*
X165871381Y-69486143D02*
X164871381Y-69486143D01*
X165014238Y-69390905D01*
X165109476Y-69295667D01*
X165157095Y-69200429D01*
X164871381Y-70629001D02*
X164871381Y-70438524D01*
X164919000Y-70343286D01*
X164966619Y-70295667D01*
X165109476Y-70200429D01*
X165299952Y-70152810D01*
X165680905Y-70152810D01*
X165776143Y-70200429D01*
X165823762Y-70248048D01*
X165871381Y-70343286D01*
X165871381Y-70533763D01*
X165823762Y-70629001D01*
X165776143Y-70676620D01*
X165680905Y-70724239D01*
X165442810Y-70724239D01*
X165347571Y-70676620D01*
X165299952Y-70629001D01*
X165252333Y-70533763D01*
X165252333Y-70343286D01*
X165299952Y-70248048D01*
X165347571Y-70200429D01*
X165442810Y-70152810D01*
D12*
X149537000Y-83078500D03*
X147497000Y-83078500D03*
X151577000Y-83078500D03*
X146477000Y-85618500D03*
X148517000Y-85618500D03*
X150557000Y-85618500D03*
D13*
X163795000Y-87568000D03*
D14*
X161255000Y-87568000D03*
D15*
X157580000Y-63800000D03*
D16*
X155040000Y-63800000D03*
X152500000Y-63800000D03*
X149960000Y-63800000D03*
D17*
X161917000Y-73736000D03*
X148480000Y-72620000D03*
D18*
X148400000Y-68900000D03*
X162300000Y-68500000D03*
D19*
X145950000Y-71350000D02*
X148400000Y-68900000D01*
X149510000Y-83060000D02*
X145950000Y-79500000D01*
X145950000Y-79500000D02*
X145950000Y-71350000D01*
X148490000Y-85600000D02*
X150574999Y-83515001D01*
X150574999Y-83515001D02*
X150574999Y-82681997D01*
X150574999Y-82681997D02*
X149978001Y-82084999D01*
X149978001Y-82084999D02*
X149171409Y-82084999D01*
X149171409Y-82084999D02*
X146400000Y-79313590D01*
X146400000Y-79313590D02*
X146400000Y-71536410D01*
X146400000Y-71536410D02*
X148336410Y-69600000D01*
X148336410Y-69600000D02*
X161200000Y-69600000D01*
X161200000Y-69600000D02*
X162300000Y-68500000D01*
D20*
G36*
X148884974Y-62683046D02*
X148796400Y-63128336D01*
X148796400Y-64471664D01*
X148884974Y-64916954D01*
X149137211Y-65294453D01*
X149514710Y-65546690D01*
X149960000Y-65635264D01*
X150405290Y-65546690D01*
X150782789Y-65294453D01*
X151035026Y-64916954D01*
X151123600Y-64471664D01*
X151123600Y-63128336D01*
X151035026Y-62683046D01*
X150829196Y-62375000D01*
X151630804Y-62375000D01*
X151424974Y-62683046D01*
X151336400Y-63128336D01*
X151336400Y-64471664D01*
X151424974Y-64916954D01*
X151677211Y-65294453D01*
X152054710Y-65546690D01*
X152500000Y-65635264D01*
X152945290Y-65546690D01*
X153322789Y-65294453D01*
X153575026Y-64916954D01*
X153663600Y-64471664D01*
X153663600Y-63128336D01*
X153575026Y-62683046D01*
X153369196Y-62375000D01*
X154170804Y-62375000D01*
X153964974Y-62683046D01*
X153876400Y-63128336D01*
X153876400Y-64471664D01*
X153964974Y-64916954D01*
X154217211Y-65294453D01*
X154594710Y-65546690D01*
X155040000Y-65635264D01*
X155485290Y-65546690D01*
X155862789Y-65294453D01*
X156115026Y-64916954D01*
X156203600Y-64471664D01*
X156203600Y-63128336D01*
X156115026Y-62683046D01*
X155909196Y-62375000D01*
X156410523Y-62375000D01*
X156410523Y-65300000D01*
X156431442Y-65411173D01*
X156497145Y-65513279D01*
X156597397Y-65581778D01*
X156716400Y-65605877D01*
X158443600Y-65605877D01*
X158554773Y-65584958D01*
X158656879Y-65519255D01*
X158725378Y-65419003D01*
X158749477Y-65300000D01*
X158749477Y-62375000D01*
X165845000Y-62375000D01*
X165845000Y-63968285D01*
X164194000Y-63968285D01*
X164194000Y-71289714D01*
X165845000Y-71289714D01*
X165845000Y-72972238D01*
X167625000Y-72972238D01*
X167625000Y-89625000D01*
X140375000Y-89625000D01*
X140375000Y-88185853D01*
X141676766Y-88185853D01*
X141881858Y-88682215D01*
X142261288Y-89062307D01*
X142757290Y-89268265D01*
X143294353Y-89268734D01*
X143790715Y-89063642D01*
X144170807Y-88684212D01*
X144376765Y-88188210D01*
X144376767Y-88185853D01*
X153676766Y-88185853D01*
X153881858Y-88682215D01*
X154261288Y-89062307D01*
X154757290Y-89268265D01*
X155294353Y-89268734D01*
X155790715Y-89063642D01*
X156170807Y-88684212D01*
X156376765Y-88188210D01*
X156376774Y-88176888D01*
X159929520Y-88176888D01*
X160078209Y-88674621D01*
X160406054Y-89077565D01*
X160663797Y-89227728D01*
X160855000Y-89226768D01*
X160855000Y-87968000D01*
X160001302Y-87968000D01*
X159929520Y-88176888D01*
X156376774Y-88176888D01*
X156377234Y-87651147D01*
X156172142Y-87154785D01*
X155976810Y-86959112D01*
X159929520Y-86959112D01*
X160001302Y-87168000D01*
X160855000Y-87168000D01*
X160855000Y-85909232D01*
X161655000Y-85909232D01*
X161655000Y-87168000D01*
X161675000Y-87168000D01*
X161675000Y-87968000D01*
X161655000Y-87968000D01*
X161655000Y-89226768D01*
X161846203Y-89227728D01*
X162103946Y-89077565D01*
X162431791Y-88674621D01*
X162473123Y-88536263D01*
X162473123Y-89068000D01*
X162494042Y-89179173D01*
X162559745Y-89281279D01*
X162659997Y-89349778D01*
X162779000Y-89373877D01*
X164811000Y-89373877D01*
X164922173Y-89352958D01*
X165024279Y-89287255D01*
X165092778Y-89187003D01*
X165116877Y-89068000D01*
X165116877Y-86068000D01*
X165095958Y-85956827D01*
X165030255Y-85854721D01*
X164930003Y-85786222D01*
X164811000Y-85762123D01*
X162779000Y-85762123D01*
X162667827Y-85783042D01*
X162565721Y-85848745D01*
X162497222Y-85948997D01*
X162473123Y-86068000D01*
X162473123Y-86599737D01*
X162431791Y-86461379D01*
X162103946Y-86058435D01*
X161846203Y-85908272D01*
X161655000Y-85909232D01*
X160855000Y-85909232D01*
X160663797Y-85908272D01*
X160406054Y-86058435D01*
X160078209Y-86461379D01*
X159929520Y-86959112D01*
X155976810Y-86959112D01*
X155792712Y-86774693D01*
X155296710Y-86568735D01*
X154759647Y-86568266D01*
X154263285Y-86773358D01*
X153883193Y-87152788D01*
X153677235Y-87648790D01*
X153676766Y-88185853D01*
X144376767Y-88185853D01*
X144377234Y-87651147D01*
X144172142Y-87154785D01*
X143792712Y-86774693D01*
X143296710Y-86568735D01*
X142759647Y-86568266D01*
X142263285Y-86773358D01*
X141883193Y-87152788D01*
X141677235Y-87648790D01*
X141676766Y-88185853D01*
X140375000Y-88185853D01*
X140375000Y-85806638D01*
X145526835Y-85806638D01*
X145671159Y-86155929D01*
X145938165Y-86423402D01*
X146287204Y-86568335D01*
X146665138Y-86568665D01*
X147014429Y-86424341D01*
X147281902Y-86157335D01*
X147426835Y-85808296D01*
X147427165Y-85430362D01*
X147282841Y-85081071D01*
X147015835Y-84813598D01*
X146666796Y-84668665D01*
X146288862Y-84668335D01*
X145939571Y-84812659D01*
X145672098Y-85079665D01*
X145527165Y-85428704D01*
X145526835Y-85806638D01*
X140375000Y-85806638D01*
X140375000Y-83896917D01*
X147138202Y-83896917D01*
X147223599Y-84007727D01*
X147600011Y-84041620D01*
X147770401Y-84007727D01*
X147855798Y-83896917D01*
X147497000Y-83538119D01*
X147138202Y-83896917D01*
X140375000Y-83896917D01*
X140375000Y-83181511D01*
X146533880Y-83181511D01*
X146567773Y-83351901D01*
X146678583Y-83437298D01*
X147037381Y-83078500D01*
X147956619Y-83078500D01*
X148315417Y-83437298D01*
X148426227Y-83351901D01*
X148460120Y-82975489D01*
X148426227Y-82805099D01*
X148315417Y-82719702D01*
X147956619Y-83078500D01*
X147037381Y-83078500D01*
X146678583Y-82719702D01*
X146567773Y-82805099D01*
X146533880Y-83181511D01*
X140375000Y-83181511D01*
X140375000Y-82260083D01*
X147138202Y-82260083D01*
X147497000Y-82618881D01*
X147855798Y-82260083D01*
X147770401Y-82149273D01*
X147393989Y-82115380D01*
X147223599Y-82149273D01*
X147138202Y-82260083D01*
X140375000Y-82260083D01*
X140375000Y-71350000D01*
X145525000Y-71350000D01*
X145525000Y-79500000D01*
X145547698Y-79614110D01*
X145557351Y-79662641D01*
X145649480Y-79800520D01*
X148631322Y-82782362D01*
X148587165Y-82888704D01*
X148586835Y-83266638D01*
X148731159Y-83615929D01*
X148998165Y-83883402D01*
X149347204Y-84028335D01*
X149460526Y-84028434D01*
X148786994Y-84701966D01*
X148706796Y-84668665D01*
X148328862Y-84668335D01*
X147979571Y-84812659D01*
X147712098Y-85079665D01*
X147567165Y-85428704D01*
X147566835Y-85806638D01*
X147711159Y-86155929D01*
X147978165Y-86423402D01*
X148327204Y-86568335D01*
X148705138Y-86568665D01*
X149023992Y-86436917D01*
X150198202Y-86436917D01*
X150283599Y-86547727D01*
X150660011Y-86581620D01*
X150830401Y-86547727D01*
X150915798Y-86436917D01*
X150557000Y-86078119D01*
X150198202Y-86436917D01*
X149023992Y-86436917D01*
X149054429Y-86424341D01*
X149321902Y-86157335D01*
X149466835Y-85808296D01*
X149466910Y-85721511D01*
X149593880Y-85721511D01*
X149627773Y-85891901D01*
X149738583Y-85977298D01*
X150097381Y-85618500D01*
X151016619Y-85618500D01*
X151375417Y-85977298D01*
X151486227Y-85891901D01*
X151520120Y-85515489D01*
X151486227Y-85345099D01*
X151375417Y-85259702D01*
X151016619Y-85618500D01*
X150097381Y-85618500D01*
X149738583Y-85259702D01*
X149627773Y-85345099D01*
X149593880Y-85721511D01*
X149466910Y-85721511D01*
X149467165Y-85430362D01*
X149406792Y-85284248D01*
X149890957Y-84800083D01*
X150198202Y-84800083D01*
X150557000Y-85158881D01*
X150915798Y-84800083D01*
X150830401Y-84689273D01*
X150453989Y-84655380D01*
X150283599Y-84689273D01*
X150198202Y-84800083D01*
X149890957Y-84800083D01*
X150875519Y-83815521D01*
X150913564Y-83758583D01*
X151038165Y-83883402D01*
X151387204Y-84028335D01*
X151765138Y-84028665D01*
X152114429Y-83884341D01*
X152381902Y-83617335D01*
X152526835Y-83268296D01*
X152527165Y-82890362D01*
X152382841Y-82541071D01*
X152115835Y-82273598D01*
X151766796Y-82128665D01*
X151388862Y-82128335D01*
X151039571Y-82272659D01*
X150897544Y-82414438D01*
X150875520Y-82381477D01*
X150278521Y-81784479D01*
X150140642Y-81692350D01*
X150113658Y-81686983D01*
X149978001Y-81659999D01*
X149347450Y-81659999D01*
X146825000Y-79137550D01*
X146825000Y-71712450D01*
X148512451Y-70025000D01*
X161200000Y-70025000D01*
X161335657Y-69998016D01*
X161362641Y-69992649D01*
X161500520Y-69900520D01*
X162301039Y-69100001D01*
X162418824Y-69100104D01*
X162639429Y-69008952D01*
X162808359Y-68840317D01*
X162899896Y-68619871D01*
X162900104Y-68381176D01*
X162808952Y-68160571D01*
X162640317Y-67991641D01*
X162419871Y-67900104D01*
X162181176Y-67899896D01*
X161960571Y-67991048D01*
X161791641Y-68159683D01*
X161700104Y-68380129D01*
X161700000Y-68498960D01*
X161023960Y-69175000D01*
X148935481Y-69175000D01*
X148999896Y-69019871D01*
X149000104Y-68781176D01*
X148908952Y-68560571D01*
X148740317Y-68391641D01*
X148519871Y-68300104D01*
X148281176Y-68299896D01*
X148060571Y-68391048D01*
X147891641Y-68559683D01*
X147800104Y-68780129D01*
X147800000Y-68898959D01*
X145649480Y-71049480D01*
X145557351Y-71187359D01*
X145557351Y-71187360D01*
X145525000Y-71350000D01*
X140375000Y-71350000D01*
X140375000Y-62375000D01*
X149090804Y-62375000D01*
X148884974Y-62683046D01*
X148884974Y-62683046D01*
G37*
X148884974Y-62683046D02*
X148796400Y-63128336D01*
X148796400Y-64471664D01*
X148884974Y-64916954D01*
X149137211Y-65294453D01*
X149514710Y-65546690D01*
X149960000Y-65635264D01*
X150405290Y-65546690D01*
X150782789Y-65294453D01*
X151035026Y-64916954D01*
X151123600Y-64471664D01*
X151123600Y-63128336D01*
X151035026Y-62683046D01*
X150829196Y-62375000D01*
X151630804Y-62375000D01*
X151424974Y-62683046D01*
X151336400Y-63128336D01*
X151336400Y-64471664D01*
X151424974Y-64916954D01*
X151677211Y-65294453D01*
X152054710Y-65546690D01*
X152500000Y-65635264D01*
X152945290Y-65546690D01*
X153322789Y-65294453D01*
X153575026Y-64916954D01*
X153663600Y-64471664D01*
X153663600Y-63128336D01*
X153575026Y-62683046D01*
X153369196Y-62375000D01*
X154170804Y-62375000D01*
X153964974Y-62683046D01*
X153876400Y-63128336D01*
X153876400Y-64471664D01*
X153964974Y-64916954D01*
X154217211Y-65294453D01*
X154594710Y-65546690D01*
X155040000Y-65635264D01*
X155485290Y-65546690D01*
X155862789Y-65294453D01*
X156115026Y-64916954D01*
X156203600Y-64471664D01*
X156203600Y-63128336D01*
X156115026Y-62683046D01*
X155909196Y-62375000D01*
X156410523Y-62375000D01*
X156410523Y-65300000D01*
X156431442Y-65411173D01*
X156497145Y-65513279D01*
X156597397Y-65581778D01*
X156716400Y-65605877D01*
X158443600Y-65605877D01*
X158554773Y-65584958D01*
X158656879Y-65519255D01*
X158725378Y-65419003D01*
X158749477Y-65300000D01*
X158749477Y-62375000D01*
X165845000Y-62375000D01*
X165845000Y-63968285D01*
X164194000Y-63968285D01*
X164194000Y-71289714D01*
X165845000Y-71289714D01*
X165845000Y-72972238D01*
X167625000Y-72972238D01*
X167625000Y-89625000D01*
X140375000Y-89625000D01*
X140375000Y-88185853D01*
X141676766Y-88185853D01*
X141881858Y-88682215D01*
X142261288Y-89062307D01*
X142757290Y-89268265D01*
X143294353Y-89268734D01*
X143790715Y-89063642D01*
X144170807Y-88684212D01*
X144376765Y-88188210D01*
X144376767Y-88185853D01*
X153676766Y-88185853D01*
X153881858Y-88682215D01*
X154261288Y-89062307D01*
X154757290Y-89268265D01*
X155294353Y-89268734D01*
X155790715Y-89063642D01*
X156170807Y-88684212D01*
X156376765Y-88188210D01*
X156376774Y-88176888D01*
X159929520Y-88176888D01*
X160078209Y-88674621D01*
X160406054Y-89077565D01*
X160663797Y-89227728D01*
X160855000Y-89226768D01*
X160855000Y-87968000D01*
X160001302Y-87968000D01*
X159929520Y-88176888D01*
X156376774Y-88176888D01*
X156377234Y-87651147D01*
X156172142Y-87154785D01*
X155976810Y-86959112D01*
X159929520Y-86959112D01*
X160001302Y-87168000D01*
X160855000Y-87168000D01*
X160855000Y-85909232D01*
X161655000Y-85909232D01*
X161655000Y-87168000D01*
X161675000Y-87168000D01*
X161675000Y-87968000D01*
X161655000Y-87968000D01*
X161655000Y-89226768D01*
X161846203Y-89227728D01*
X162103946Y-89077565D01*
X162431791Y-88674621D01*
X162473123Y-88536263D01*
X162473123Y-89068000D01*
X162494042Y-89179173D01*
X162559745Y-89281279D01*
X162659997Y-89349778D01*
X162779000Y-89373877D01*
X164811000Y-89373877D01*
X164922173Y-89352958D01*
X165024279Y-89287255D01*
X165092778Y-89187003D01*
X165116877Y-89068000D01*
X165116877Y-86068000D01*
X165095958Y-85956827D01*
X165030255Y-85854721D01*
X164930003Y-85786222D01*
X164811000Y-85762123D01*
X162779000Y-85762123D01*
X162667827Y-85783042D01*
X162565721Y-85848745D01*
X162497222Y-85948997D01*
X162473123Y-86068000D01*
X162473123Y-86599737D01*
X162431791Y-86461379D01*
X162103946Y-86058435D01*
X161846203Y-85908272D01*
X161655000Y-85909232D01*
X160855000Y-85909232D01*
X160663797Y-85908272D01*
X160406054Y-86058435D01*
X160078209Y-86461379D01*
X159929520Y-86959112D01*
X155976810Y-86959112D01*
X155792712Y-86774693D01*
X155296710Y-86568735D01*
X154759647Y-86568266D01*
X154263285Y-86773358D01*
X153883193Y-87152788D01*
X153677235Y-87648790D01*
X153676766Y-88185853D01*
X144376767Y-88185853D01*
X144377234Y-87651147D01*
X144172142Y-87154785D01*
X143792712Y-86774693D01*
X143296710Y-86568735D01*
X142759647Y-86568266D01*
X142263285Y-86773358D01*
X141883193Y-87152788D01*
X141677235Y-87648790D01*
X141676766Y-88185853D01*
X140375000Y-88185853D01*
X140375000Y-85806638D01*
X145526835Y-85806638D01*
X145671159Y-86155929D01*
X145938165Y-86423402D01*
X146287204Y-86568335D01*
X146665138Y-86568665D01*
X147014429Y-86424341D01*
X147281902Y-86157335D01*
X147426835Y-85808296D01*
X147427165Y-85430362D01*
X147282841Y-85081071D01*
X147015835Y-84813598D01*
X146666796Y-84668665D01*
X146288862Y-84668335D01*
X145939571Y-84812659D01*
X145672098Y-85079665D01*
X145527165Y-85428704D01*
X145526835Y-85806638D01*
X140375000Y-85806638D01*
X140375000Y-83896917D01*
X147138202Y-83896917D01*
X147223599Y-84007727D01*
X147600011Y-84041620D01*
X147770401Y-84007727D01*
X147855798Y-83896917D01*
X147497000Y-83538119D01*
X147138202Y-83896917D01*
X140375000Y-83896917D01*
X140375000Y-83181511D01*
X146533880Y-83181511D01*
X146567773Y-83351901D01*
X146678583Y-83437298D01*
X147037381Y-83078500D01*
X147956619Y-83078500D01*
X148315417Y-83437298D01*
X148426227Y-83351901D01*
X148460120Y-82975489D01*
X148426227Y-82805099D01*
X148315417Y-82719702D01*
X147956619Y-83078500D01*
X147037381Y-83078500D01*
X146678583Y-82719702D01*
X146567773Y-82805099D01*
X146533880Y-83181511D01*
X140375000Y-83181511D01*
X140375000Y-82260083D01*
X147138202Y-82260083D01*
X147497000Y-82618881D01*
X147855798Y-82260083D01*
X147770401Y-82149273D01*
X147393989Y-82115380D01*
X147223599Y-82149273D01*
X147138202Y-82260083D01*
X140375000Y-82260083D01*
X140375000Y-71350000D01*
X145525000Y-71350000D01*
X145525000Y-79500000D01*
X145547698Y-79614110D01*
X145557351Y-79662641D01*
X145649480Y-79800520D01*
X148631322Y-82782362D01*
X148587165Y-82888704D01*
X148586835Y-83266638D01*
X148731159Y-83615929D01*
X148998165Y-83883402D01*
X149347204Y-84028335D01*
X149460526Y-84028434D01*
X148786994Y-84701966D01*
X148706796Y-84668665D01*
X148328862Y-84668335D01*
X147979571Y-84812659D01*
X147712098Y-85079665D01*
X147567165Y-85428704D01*
X147566835Y-85806638D01*
X147711159Y-86155929D01*
X147978165Y-86423402D01*
X148327204Y-86568335D01*
X148705138Y-86568665D01*
X149023992Y-86436917D01*
X150198202Y-86436917D01*
X150283599Y-86547727D01*
X150660011Y-86581620D01*
X150830401Y-86547727D01*
X150915798Y-86436917D01*
X150557000Y-86078119D01*
X150198202Y-86436917D01*
X149023992Y-86436917D01*
X149054429Y-86424341D01*
X149321902Y-86157335D01*
X149466835Y-85808296D01*
X149466910Y-85721511D01*
X149593880Y-85721511D01*
X149627773Y-85891901D01*
X149738583Y-85977298D01*
X150097381Y-85618500D01*
X151016619Y-85618500D01*
X151375417Y-85977298D01*
X151486227Y-85891901D01*
X151520120Y-85515489D01*
X151486227Y-85345099D01*
X151375417Y-85259702D01*
X151016619Y-85618500D01*
X150097381Y-85618500D01*
X149738583Y-85259702D01*
X149627773Y-85345099D01*
X149593880Y-85721511D01*
X149466910Y-85721511D01*
X149467165Y-85430362D01*
X149406792Y-85284248D01*
X149890957Y-84800083D01*
X150198202Y-84800083D01*
X150557000Y-85158881D01*
X150915798Y-84800083D01*
X150830401Y-84689273D01*
X150453989Y-84655380D01*
X150283599Y-84689273D01*
X150198202Y-84800083D01*
X149890957Y-84800083D01*
X150875519Y-83815521D01*
X150913564Y-83758583D01*
X151038165Y-83883402D01*
X151387204Y-84028335D01*
X151765138Y-84028665D01*
X152114429Y-83884341D01*
X152381902Y-83617335D01*
X152526835Y-83268296D01*
X152527165Y-82890362D01*
X152382841Y-82541071D01*
X152115835Y-82273598D01*
X151766796Y-82128665D01*
X151388862Y-82128335D01*
X151039571Y-82272659D01*
X150897544Y-82414438D01*
X150875520Y-82381477D01*
X150278521Y-81784479D01*
X150140642Y-81692350D01*
X150113658Y-81686983D01*
X149978001Y-81659999D01*
X149347450Y-81659999D01*
X146825000Y-79137550D01*
X146825000Y-71712450D01*
X148512451Y-70025000D01*
X161200000Y-70025000D01*
X161335657Y-69998016D01*
X161362641Y-69992649D01*
X161500520Y-69900520D01*
X162301039Y-69100001D01*
X162418824Y-69100104D01*
X162639429Y-69008952D01*
X162808359Y-68840317D01*
X162899896Y-68619871D01*
X162900104Y-68381176D01*
X162808952Y-68160571D01*
X162640317Y-67991641D01*
X162419871Y-67900104D01*
X162181176Y-67899896D01*
X161960571Y-67991048D01*
X161791641Y-68159683D01*
X161700104Y-68380129D01*
X161700000Y-68498960D01*
X161023960Y-69175000D01*
X148935481Y-69175000D01*
X148999896Y-69019871D01*
X149000104Y-68781176D01*
X148908952Y-68560571D01*
X148740317Y-68391641D01*
X148519871Y-68300104D01*
X148281176Y-68299896D01*
X148060571Y-68391048D01*
X147891641Y-68559683D01*
X147800104Y-68780129D01*
X147800000Y-68898959D01*
X145649480Y-71049480D01*
X145557351Y-71187359D01*
X145557351Y-71187360D01*
X145525000Y-71350000D01*
X140375000Y-71350000D01*
X140375000Y-62375000D01*
X149090804Y-62375000D01*
X148884974Y-62683046D01*
M02*
