%FSLAX45Y45*%
G04 Gerber Fmt 4.5, Leading zero omitted, Abs format (unit mm)*
G04 Created by KiCad (PCBNEW 4.0.2-stable) date 3/16/2016 10:12:16 PM*
%MOMM*%
G01*
G04 APERTURE LIST*
%ADD10C,0.127000*%
%ADD11C,0.150000*%
%ADD12C,0.200000*%
%ADD13C,0.300000*%
G04 APERTURE END LIST*
D10*
D11*
X14000000Y-6200000D02*
X14000000Y-9000000D01*
X16800000Y-6200000D02*
X14000000Y-6200000D01*
X16800000Y-9000000D02*
X16800000Y-6200000D01*
X14000000Y-9000000D02*
X16800000Y-9000000D01*
D12*
X14820000Y-6870000D02*
X14860000Y-6910000D01*
X14860000Y-6870000D02*
X14820000Y-6910000D01*
X14828000Y-7242000D02*
X14868000Y-7282000D01*
X14868000Y-7242000D02*
X14828000Y-7282000D01*
X16171700Y-7353600D02*
X16211700Y-7393600D01*
X16211700Y-7353600D02*
X16171700Y-7393600D01*
X16210000Y-6830000D02*
X16250000Y-6870000D01*
X16250000Y-6830000D02*
X16210000Y-6870000D01*
X14692700Y-8561850D02*
G75*
G03X14692700Y-8561850I-45000J0D01*
G01*
X14794700Y-8307850D02*
G75*
G03X14794700Y-8307850I-45000J0D01*
G01*
X14896700Y-8561850D02*
G75*
G03X14896700Y-8561850I-45000J0D01*
G01*
X14998700Y-8307850D02*
G75*
G03X14998700Y-8307850I-45000J0D01*
G01*
X15100700Y-8561850D02*
G75*
G03X15100700Y-8561850I-45000J0D01*
G01*
X15202700Y-8307850D02*
G75*
G03X15202700Y-8307850I-45000J0D01*
G01*
X14996000Y-6329200D02*
X14996000Y-6430800D01*
X14945200Y-6380000D02*
X15046800Y-6380000D01*
X15250000Y-6329200D02*
X15250000Y-6430800D01*
X15199200Y-6380000D02*
X15300800Y-6380000D01*
X15504000Y-6329200D02*
X15504000Y-6430800D01*
X15453200Y-6380000D02*
X15554800Y-6380000D01*
X15758000Y-6329200D02*
X15758000Y-6430800D01*
X15707200Y-6380000D02*
X15808800Y-6380000D01*
X16125500Y-8706000D02*
X16125500Y-8807600D01*
X16074700Y-8756800D02*
X16176300Y-8756800D01*
X16379500Y-8706000D02*
X16379500Y-8807600D01*
X16328700Y-8756800D02*
X16430300Y-8756800D01*
D13*
X14263928Y-9473214D02*
X14263928Y-9173214D01*
X14335357Y-9173214D01*
X14378214Y-9187500D01*
X14406786Y-9216072D01*
X14421071Y-9244643D01*
X14435357Y-9301786D01*
X14435357Y-9344643D01*
X14421071Y-9401786D01*
X14406786Y-9430357D01*
X14378214Y-9458929D01*
X14335357Y-9473214D01*
X14263928Y-9473214D01*
X14563928Y-9473214D02*
X14563928Y-9273214D01*
X14563928Y-9330357D02*
X14578214Y-9301786D01*
X14592500Y-9287500D01*
X14621071Y-9273214D01*
X14649643Y-9273214D01*
X14749643Y-9473214D02*
X14749643Y-9273214D01*
X14749643Y-9173214D02*
X14735357Y-9187500D01*
X14749643Y-9201786D01*
X14763928Y-9187500D01*
X14749643Y-9173214D01*
X14749643Y-9201786D01*
X14935357Y-9473214D02*
X14906786Y-9458929D01*
X14892500Y-9430357D01*
X14892500Y-9173214D01*
X15092500Y-9473214D02*
X15063928Y-9458929D01*
X15049643Y-9430357D01*
X15049643Y-9173214D01*
X15435357Y-9473214D02*
X15435357Y-9173214D01*
X15535357Y-9387500D01*
X15635357Y-9173214D01*
X15635357Y-9473214D01*
X15906786Y-9473214D02*
X15906786Y-9316072D01*
X15892500Y-9287500D01*
X15863928Y-9273214D01*
X15806786Y-9273214D01*
X15778214Y-9287500D01*
X15906786Y-9458929D02*
X15878214Y-9473214D01*
X15806786Y-9473214D01*
X15778214Y-9458929D01*
X15763928Y-9430357D01*
X15763928Y-9401786D01*
X15778214Y-9373214D01*
X15806786Y-9358929D01*
X15878214Y-9358929D01*
X15906786Y-9344643D01*
X16049643Y-9273214D02*
X16049643Y-9573214D01*
X16049643Y-9287500D02*
X16078214Y-9273214D01*
X16135357Y-9273214D01*
X16163928Y-9287500D01*
X16178214Y-9301786D01*
X16192500Y-9330357D01*
X16192500Y-9416072D01*
X16178214Y-9444643D01*
X16163928Y-9458929D01*
X16135357Y-9473214D01*
X16078214Y-9473214D01*
X16049643Y-9458929D01*
X16321071Y-9444643D02*
X16335357Y-9458929D01*
X16321071Y-9473214D01*
X16306786Y-9458929D01*
X16321071Y-9444643D01*
X16321071Y-9473214D01*
X16321071Y-9287500D02*
X16335357Y-9301786D01*
X16321071Y-9316072D01*
X16306786Y-9301786D01*
X16321071Y-9287500D01*
X16321071Y-9316072D01*
X13952500Y-9947500D02*
X13992500Y-9987500D01*
X13992500Y-9947500D02*
X13952500Y-9987500D01*
X14321071Y-9803214D02*
X14349643Y-9803214D01*
X14378214Y-9817500D01*
X14392500Y-9831786D01*
X14406786Y-9860357D01*
X14421071Y-9917500D01*
X14421071Y-9988929D01*
X14406786Y-10046072D01*
X14392500Y-10074643D01*
X14378214Y-10088929D01*
X14349643Y-10103214D01*
X14321071Y-10103214D01*
X14292500Y-10088929D01*
X14278214Y-10074643D01*
X14263928Y-10046072D01*
X14249643Y-9988929D01*
X14249643Y-9917500D01*
X14263928Y-9860357D01*
X14278214Y-9831786D01*
X14292500Y-9817500D01*
X14321071Y-9803214D01*
X14549643Y-10074643D02*
X14563928Y-10088929D01*
X14549643Y-10103214D01*
X14535357Y-10088929D01*
X14549643Y-10074643D01*
X14549643Y-10103214D01*
X14821071Y-9903214D02*
X14821071Y-10103214D01*
X14749643Y-9788929D02*
X14678214Y-10003214D01*
X14863928Y-10003214D01*
X15035357Y-9803214D02*
X15063928Y-9803214D01*
X15092500Y-9817500D01*
X15106786Y-9831786D01*
X15121071Y-9860357D01*
X15135357Y-9917500D01*
X15135357Y-9988929D01*
X15121071Y-10046072D01*
X15106786Y-10074643D01*
X15092500Y-10088929D01*
X15063928Y-10103214D01*
X15035357Y-10103214D01*
X15006786Y-10088929D01*
X14992500Y-10074643D01*
X14978214Y-10046072D01*
X14963928Y-9988929D01*
X14963928Y-9917500D01*
X14978214Y-9860357D01*
X14992500Y-9831786D01*
X15006786Y-9817500D01*
X15035357Y-9803214D01*
X15263928Y-10103214D02*
X15263928Y-9903214D01*
X15263928Y-9931786D02*
X15278214Y-9917500D01*
X15306786Y-9903214D01*
X15349643Y-9903214D01*
X15378214Y-9917500D01*
X15392500Y-9946072D01*
X15392500Y-10103214D01*
X15392500Y-9946072D02*
X15406786Y-9917500D01*
X15435357Y-9903214D01*
X15478214Y-9903214D01*
X15506786Y-9917500D01*
X15521071Y-9946072D01*
X15521071Y-10103214D01*
X15663928Y-10103214D02*
X15663928Y-9903214D01*
X15663928Y-9931786D02*
X15678214Y-9917500D01*
X15706786Y-9903214D01*
X15749643Y-9903214D01*
X15778214Y-9917500D01*
X15792500Y-9946072D01*
X15792500Y-10103214D01*
X15792500Y-9946072D02*
X15806786Y-9917500D01*
X15835357Y-9903214D01*
X15878214Y-9903214D01*
X15906786Y-9917500D01*
X15921071Y-9946072D01*
X15921071Y-10103214D01*
X16506786Y-9788929D02*
X16249643Y-10174643D01*
X16892500Y-9803214D02*
X16921071Y-9803214D01*
X16949643Y-9817500D01*
X16963928Y-9831786D01*
X16978214Y-9860357D01*
X16992500Y-9917500D01*
X16992500Y-9988929D01*
X16978214Y-10046072D01*
X16963928Y-10074643D01*
X16949643Y-10088929D01*
X16921071Y-10103214D01*
X16892500Y-10103214D01*
X16863928Y-10088929D01*
X16849643Y-10074643D01*
X16835357Y-10046072D01*
X16821071Y-9988929D01*
X16821071Y-9917500D01*
X16835357Y-9860357D01*
X16849643Y-9831786D01*
X16863928Y-9817500D01*
X16892500Y-9803214D01*
X17121071Y-10074643D02*
X17135357Y-10088929D01*
X17121071Y-10103214D01*
X17106786Y-10088929D01*
X17121071Y-10074643D01*
X17121071Y-10103214D01*
X17321071Y-9803214D02*
X17349643Y-9803214D01*
X17378214Y-9817500D01*
X17392500Y-9831786D01*
X17406786Y-9860357D01*
X17421071Y-9917500D01*
X17421071Y-9988929D01*
X17406786Y-10046072D01*
X17392500Y-10074643D01*
X17378214Y-10088929D01*
X17349643Y-10103214D01*
X17321071Y-10103214D01*
X17292500Y-10088929D01*
X17278214Y-10074643D01*
X17263928Y-10046072D01*
X17249643Y-9988929D01*
X17249643Y-9917500D01*
X17263928Y-9860357D01*
X17278214Y-9831786D01*
X17292500Y-9817500D01*
X17321071Y-9803214D01*
X17706786Y-10103214D02*
X17535357Y-10103214D01*
X17621071Y-10103214D02*
X17621071Y-9803214D01*
X17592500Y-9846072D01*
X17563928Y-9874643D01*
X17535357Y-9888929D01*
X17963928Y-9803214D02*
X17906786Y-9803214D01*
X17878214Y-9817500D01*
X17863928Y-9831786D01*
X17835357Y-9874643D01*
X17821071Y-9931786D01*
X17821071Y-10046072D01*
X17835357Y-10074643D01*
X17849643Y-10088929D01*
X17878214Y-10103214D01*
X17935357Y-10103214D01*
X17963928Y-10088929D01*
X17978214Y-10074643D01*
X17992500Y-10046072D01*
X17992500Y-9974643D01*
X17978214Y-9946072D01*
X17963928Y-9931786D01*
X17935357Y-9917500D01*
X17878214Y-9917500D01*
X17849643Y-9931786D01*
X17835357Y-9946072D01*
X17821071Y-9974643D01*
X18106786Y-9803214D02*
X18106786Y-9860357D01*
X18221071Y-9803214D02*
X18221071Y-9860357D01*
X18663928Y-10217500D02*
X18649643Y-10203214D01*
X18621071Y-10160357D01*
X18606786Y-10131786D01*
X18592500Y-10088929D01*
X18578214Y-10017500D01*
X18578214Y-9960357D01*
X18592500Y-9888929D01*
X18606786Y-9846072D01*
X18621071Y-9817500D01*
X18649643Y-9774643D01*
X18663928Y-9760357D01*
X18906786Y-9903214D02*
X18906786Y-10103214D01*
X18835357Y-9788929D02*
X18763928Y-10003214D01*
X18949643Y-10003214D01*
X19292500Y-10103214D02*
X19292500Y-9803214D01*
X19421071Y-10103214D02*
X19421071Y-9946072D01*
X19406786Y-9917500D01*
X19378214Y-9903214D01*
X19335357Y-9903214D01*
X19306786Y-9917500D01*
X19292500Y-9931786D01*
X19606786Y-10103214D02*
X19578214Y-10088929D01*
X19563928Y-10074643D01*
X19549643Y-10046072D01*
X19549643Y-9960357D01*
X19563928Y-9931786D01*
X19578214Y-9917500D01*
X19606786Y-9903214D01*
X19649643Y-9903214D01*
X19678214Y-9917500D01*
X19692500Y-9931786D01*
X19706786Y-9960357D01*
X19706786Y-10046072D01*
X19692500Y-10074643D01*
X19678214Y-10088929D01*
X19649643Y-10103214D01*
X19606786Y-10103214D01*
X19878214Y-10103214D02*
X19849643Y-10088929D01*
X19835357Y-10060357D01*
X19835357Y-9803214D01*
X20106786Y-10088929D02*
X20078214Y-10103214D01*
X20021071Y-10103214D01*
X19992500Y-10088929D01*
X19978214Y-10060357D01*
X19978214Y-9946072D01*
X19992500Y-9917500D01*
X20021071Y-9903214D01*
X20078214Y-9903214D01*
X20106786Y-9917500D01*
X20121071Y-9946072D01*
X20121071Y-9974643D01*
X19978214Y-10003214D01*
X20235357Y-10088929D02*
X20263929Y-10103214D01*
X20321071Y-10103214D01*
X20349643Y-10088929D01*
X20363929Y-10060357D01*
X20363929Y-10046072D01*
X20349643Y-10017500D01*
X20321071Y-10003214D01*
X20278214Y-10003214D01*
X20249643Y-9988929D01*
X20235357Y-9960357D01*
X20235357Y-9946072D01*
X20249643Y-9917500D01*
X20278214Y-9903214D01*
X20321071Y-9903214D01*
X20349643Y-9917500D01*
X20463928Y-10217500D02*
X20478214Y-10203214D01*
X20506786Y-10160357D01*
X20521071Y-10131786D01*
X20535357Y-10088929D01*
X20549643Y-10017500D01*
X20549643Y-9960357D01*
X20535357Y-9888929D01*
X20521071Y-9846072D01*
X20506786Y-9817500D01*
X20478214Y-9774643D01*
X20463928Y-9760357D01*
X13992500Y-10363500D02*
G75*
G03X13992500Y-10363500I-45000J0D01*
G01*
X14321071Y-10199214D02*
X14349643Y-10199214D01*
X14378214Y-10213500D01*
X14392500Y-10227786D01*
X14406786Y-10256357D01*
X14421071Y-10313500D01*
X14421071Y-10384929D01*
X14406786Y-10442072D01*
X14392500Y-10470643D01*
X14378214Y-10484929D01*
X14349643Y-10499214D01*
X14321071Y-10499214D01*
X14292500Y-10484929D01*
X14278214Y-10470643D01*
X14263928Y-10442072D01*
X14249643Y-10384929D01*
X14249643Y-10313500D01*
X14263928Y-10256357D01*
X14278214Y-10227786D01*
X14292500Y-10213500D01*
X14321071Y-10199214D01*
X14549643Y-10470643D02*
X14563928Y-10484929D01*
X14549643Y-10499214D01*
X14535357Y-10484929D01*
X14549643Y-10470643D01*
X14549643Y-10499214D01*
X14706786Y-10499214D02*
X14763928Y-10499214D01*
X14792500Y-10484929D01*
X14806786Y-10470643D01*
X14835357Y-10427786D01*
X14849643Y-10370643D01*
X14849643Y-10256357D01*
X14835357Y-10227786D01*
X14821071Y-10213500D01*
X14792500Y-10199214D01*
X14735357Y-10199214D01*
X14706786Y-10213500D01*
X14692500Y-10227786D01*
X14678214Y-10256357D01*
X14678214Y-10327786D01*
X14692500Y-10356357D01*
X14706786Y-10370643D01*
X14735357Y-10384929D01*
X14792500Y-10384929D01*
X14821071Y-10370643D01*
X14835357Y-10356357D01*
X14849643Y-10327786D01*
X15035357Y-10199214D02*
X15063928Y-10199214D01*
X15092500Y-10213500D01*
X15106786Y-10227786D01*
X15121071Y-10256357D01*
X15135357Y-10313500D01*
X15135357Y-10384929D01*
X15121071Y-10442072D01*
X15106786Y-10470643D01*
X15092500Y-10484929D01*
X15063928Y-10499214D01*
X15035357Y-10499214D01*
X15006786Y-10484929D01*
X14992500Y-10470643D01*
X14978214Y-10442072D01*
X14963928Y-10384929D01*
X14963928Y-10313500D01*
X14978214Y-10256357D01*
X14992500Y-10227786D01*
X15006786Y-10213500D01*
X15035357Y-10199214D01*
X15263928Y-10499214D02*
X15263928Y-10299214D01*
X15263928Y-10327786D02*
X15278214Y-10313500D01*
X15306786Y-10299214D01*
X15349643Y-10299214D01*
X15378214Y-10313500D01*
X15392500Y-10342072D01*
X15392500Y-10499214D01*
X15392500Y-10342072D02*
X15406786Y-10313500D01*
X15435357Y-10299214D01*
X15478214Y-10299214D01*
X15506786Y-10313500D01*
X15521071Y-10342072D01*
X15521071Y-10499214D01*
X15663928Y-10499214D02*
X15663928Y-10299214D01*
X15663928Y-10327786D02*
X15678214Y-10313500D01*
X15706786Y-10299214D01*
X15749643Y-10299214D01*
X15778214Y-10313500D01*
X15792500Y-10342072D01*
X15792500Y-10499214D01*
X15792500Y-10342072D02*
X15806786Y-10313500D01*
X15835357Y-10299214D01*
X15878214Y-10299214D01*
X15906786Y-10313500D01*
X15921071Y-10342072D01*
X15921071Y-10499214D01*
X16506786Y-10184929D02*
X16249643Y-10570643D01*
X16892500Y-10199214D02*
X16921071Y-10199214D01*
X16949643Y-10213500D01*
X16963928Y-10227786D01*
X16978214Y-10256357D01*
X16992500Y-10313500D01*
X16992500Y-10384929D01*
X16978214Y-10442072D01*
X16963928Y-10470643D01*
X16949643Y-10484929D01*
X16921071Y-10499214D01*
X16892500Y-10499214D01*
X16863928Y-10484929D01*
X16849643Y-10470643D01*
X16835357Y-10442072D01*
X16821071Y-10384929D01*
X16821071Y-10313500D01*
X16835357Y-10256357D01*
X16849643Y-10227786D01*
X16863928Y-10213500D01*
X16892500Y-10199214D01*
X17121071Y-10470643D02*
X17135357Y-10484929D01*
X17121071Y-10499214D01*
X17106786Y-10484929D01*
X17121071Y-10470643D01*
X17121071Y-10499214D01*
X17321071Y-10199214D02*
X17349643Y-10199214D01*
X17378214Y-10213500D01*
X17392500Y-10227786D01*
X17406786Y-10256357D01*
X17421071Y-10313500D01*
X17421071Y-10384929D01*
X17406786Y-10442072D01*
X17392500Y-10470643D01*
X17378214Y-10484929D01*
X17349643Y-10499214D01*
X17321071Y-10499214D01*
X17292500Y-10484929D01*
X17278214Y-10470643D01*
X17263928Y-10442072D01*
X17249643Y-10384929D01*
X17249643Y-10313500D01*
X17263928Y-10256357D01*
X17278214Y-10227786D01*
X17292500Y-10213500D01*
X17321071Y-10199214D01*
X17521071Y-10199214D02*
X17706786Y-10199214D01*
X17606786Y-10313500D01*
X17649643Y-10313500D01*
X17678214Y-10327786D01*
X17692500Y-10342072D01*
X17706786Y-10370643D01*
X17706786Y-10442072D01*
X17692500Y-10470643D01*
X17678214Y-10484929D01*
X17649643Y-10499214D01*
X17563928Y-10499214D01*
X17535357Y-10484929D01*
X17521071Y-10470643D01*
X17978214Y-10199214D02*
X17835357Y-10199214D01*
X17821071Y-10342072D01*
X17835357Y-10327786D01*
X17863928Y-10313500D01*
X17935357Y-10313500D01*
X17963928Y-10327786D01*
X17978214Y-10342072D01*
X17992500Y-10370643D01*
X17992500Y-10442072D01*
X17978214Y-10470643D01*
X17963928Y-10484929D01*
X17935357Y-10499214D01*
X17863928Y-10499214D01*
X17835357Y-10484929D01*
X17821071Y-10470643D01*
X18106786Y-10199214D02*
X18106786Y-10256357D01*
X18221071Y-10199214D02*
X18221071Y-10256357D01*
X18663928Y-10613500D02*
X18649643Y-10599214D01*
X18621071Y-10556357D01*
X18606786Y-10527786D01*
X18592500Y-10484929D01*
X18578214Y-10413500D01*
X18578214Y-10356357D01*
X18592500Y-10284929D01*
X18606786Y-10242072D01*
X18621071Y-10213500D01*
X18649643Y-10170643D01*
X18663928Y-10156357D01*
X18906786Y-10199214D02*
X18849643Y-10199214D01*
X18821071Y-10213500D01*
X18806786Y-10227786D01*
X18778214Y-10270643D01*
X18763928Y-10327786D01*
X18763928Y-10442072D01*
X18778214Y-10470643D01*
X18792500Y-10484929D01*
X18821071Y-10499214D01*
X18878214Y-10499214D01*
X18906786Y-10484929D01*
X18921071Y-10470643D01*
X18935357Y-10442072D01*
X18935357Y-10370643D01*
X18921071Y-10342072D01*
X18906786Y-10327786D01*
X18878214Y-10313500D01*
X18821071Y-10313500D01*
X18792500Y-10327786D01*
X18778214Y-10342072D01*
X18763928Y-10370643D01*
X19292500Y-10499214D02*
X19292500Y-10199214D01*
X19421071Y-10499214D02*
X19421071Y-10342072D01*
X19406786Y-10313500D01*
X19378214Y-10299214D01*
X19335357Y-10299214D01*
X19306786Y-10313500D01*
X19292500Y-10327786D01*
X19606786Y-10499214D02*
X19578214Y-10484929D01*
X19563928Y-10470643D01*
X19549643Y-10442072D01*
X19549643Y-10356357D01*
X19563928Y-10327786D01*
X19578214Y-10313500D01*
X19606786Y-10299214D01*
X19649643Y-10299214D01*
X19678214Y-10313500D01*
X19692500Y-10327786D01*
X19706786Y-10356357D01*
X19706786Y-10442072D01*
X19692500Y-10470643D01*
X19678214Y-10484929D01*
X19649643Y-10499214D01*
X19606786Y-10499214D01*
X19878214Y-10499214D02*
X19849643Y-10484929D01*
X19835357Y-10456357D01*
X19835357Y-10199214D01*
X20106786Y-10484929D02*
X20078214Y-10499214D01*
X20021071Y-10499214D01*
X19992500Y-10484929D01*
X19978214Y-10456357D01*
X19978214Y-10342072D01*
X19992500Y-10313500D01*
X20021071Y-10299214D01*
X20078214Y-10299214D01*
X20106786Y-10313500D01*
X20121071Y-10342072D01*
X20121071Y-10370643D01*
X19978214Y-10399214D01*
X20235357Y-10484929D02*
X20263929Y-10499214D01*
X20321071Y-10499214D01*
X20349643Y-10484929D01*
X20363929Y-10456357D01*
X20363929Y-10442072D01*
X20349643Y-10413500D01*
X20321071Y-10399214D01*
X20278214Y-10399214D01*
X20249643Y-10384929D01*
X20235357Y-10356357D01*
X20235357Y-10342072D01*
X20249643Y-10313500D01*
X20278214Y-10299214D01*
X20321071Y-10299214D01*
X20349643Y-10313500D01*
X20463928Y-10613500D02*
X20478214Y-10599214D01*
X20506786Y-10556357D01*
X20521071Y-10527786D01*
X20535357Y-10484929D01*
X20549643Y-10413500D01*
X20549643Y-10356357D01*
X20535357Y-10284929D01*
X20521071Y-10242072D01*
X20506786Y-10213500D01*
X20478214Y-10170643D01*
X20463928Y-10156357D01*
X13941700Y-10708700D02*
X13941700Y-10810300D01*
X13890900Y-10759500D02*
X13992500Y-10759500D01*
X14421071Y-10895214D02*
X14249643Y-10895214D01*
X14335357Y-10895214D02*
X14335357Y-10595214D01*
X14306786Y-10638072D01*
X14278214Y-10666643D01*
X14249643Y-10680929D01*
X14549643Y-10866643D02*
X14563928Y-10880929D01*
X14549643Y-10895214D01*
X14535357Y-10880929D01*
X14549643Y-10866643D01*
X14549643Y-10895214D01*
X14749643Y-10595214D02*
X14778214Y-10595214D01*
X14806786Y-10609500D01*
X14821071Y-10623786D01*
X14835357Y-10652357D01*
X14849643Y-10709500D01*
X14849643Y-10780929D01*
X14835357Y-10838072D01*
X14821071Y-10866643D01*
X14806786Y-10880929D01*
X14778214Y-10895214D01*
X14749643Y-10895214D01*
X14721071Y-10880929D01*
X14706786Y-10866643D01*
X14692500Y-10838072D01*
X14678214Y-10780929D01*
X14678214Y-10709500D01*
X14692500Y-10652357D01*
X14706786Y-10623786D01*
X14721071Y-10609500D01*
X14749643Y-10595214D01*
X14963928Y-10623786D02*
X14978214Y-10609500D01*
X15006786Y-10595214D01*
X15078214Y-10595214D01*
X15106786Y-10609500D01*
X15121071Y-10623786D01*
X15135357Y-10652357D01*
X15135357Y-10680929D01*
X15121071Y-10723786D01*
X14949643Y-10895214D01*
X15135357Y-10895214D01*
X15263928Y-10895214D02*
X15263928Y-10695214D01*
X15263928Y-10723786D02*
X15278214Y-10709500D01*
X15306786Y-10695214D01*
X15349643Y-10695214D01*
X15378214Y-10709500D01*
X15392500Y-10738072D01*
X15392500Y-10895214D01*
X15392500Y-10738072D02*
X15406786Y-10709500D01*
X15435357Y-10695214D01*
X15478214Y-10695214D01*
X15506786Y-10709500D01*
X15521071Y-10738072D01*
X15521071Y-10895214D01*
X15663928Y-10895214D02*
X15663928Y-10695214D01*
X15663928Y-10723786D02*
X15678214Y-10709500D01*
X15706786Y-10695214D01*
X15749643Y-10695214D01*
X15778214Y-10709500D01*
X15792500Y-10738072D01*
X15792500Y-10895214D01*
X15792500Y-10738072D02*
X15806786Y-10709500D01*
X15835357Y-10695214D01*
X15878214Y-10695214D01*
X15906786Y-10709500D01*
X15921071Y-10738072D01*
X15921071Y-10895214D01*
X16506786Y-10580929D02*
X16249643Y-10966643D01*
X16892500Y-10595214D02*
X16921071Y-10595214D01*
X16949643Y-10609500D01*
X16963928Y-10623786D01*
X16978214Y-10652357D01*
X16992500Y-10709500D01*
X16992500Y-10780929D01*
X16978214Y-10838072D01*
X16963928Y-10866643D01*
X16949643Y-10880929D01*
X16921071Y-10895214D01*
X16892500Y-10895214D01*
X16863928Y-10880929D01*
X16849643Y-10866643D01*
X16835357Y-10838072D01*
X16821071Y-10780929D01*
X16821071Y-10709500D01*
X16835357Y-10652357D01*
X16849643Y-10623786D01*
X16863928Y-10609500D01*
X16892500Y-10595214D01*
X17121071Y-10866643D02*
X17135357Y-10880929D01*
X17121071Y-10895214D01*
X17106786Y-10880929D01*
X17121071Y-10866643D01*
X17121071Y-10895214D01*
X17321071Y-10595214D02*
X17349643Y-10595214D01*
X17378214Y-10609500D01*
X17392500Y-10623786D01*
X17406786Y-10652357D01*
X17421071Y-10709500D01*
X17421071Y-10780929D01*
X17406786Y-10838072D01*
X17392500Y-10866643D01*
X17378214Y-10880929D01*
X17349643Y-10895214D01*
X17321071Y-10895214D01*
X17292500Y-10880929D01*
X17278214Y-10866643D01*
X17263928Y-10838072D01*
X17249643Y-10780929D01*
X17249643Y-10709500D01*
X17263928Y-10652357D01*
X17278214Y-10623786D01*
X17292500Y-10609500D01*
X17321071Y-10595214D01*
X17678214Y-10695214D02*
X17678214Y-10895214D01*
X17606786Y-10580929D02*
X17535357Y-10795214D01*
X17721071Y-10795214D01*
X17892500Y-10595214D02*
X17921071Y-10595214D01*
X17949643Y-10609500D01*
X17963928Y-10623786D01*
X17978214Y-10652357D01*
X17992500Y-10709500D01*
X17992500Y-10780929D01*
X17978214Y-10838072D01*
X17963928Y-10866643D01*
X17949643Y-10880929D01*
X17921071Y-10895214D01*
X17892500Y-10895214D01*
X17863928Y-10880929D01*
X17849643Y-10866643D01*
X17835357Y-10838072D01*
X17821071Y-10780929D01*
X17821071Y-10709500D01*
X17835357Y-10652357D01*
X17849643Y-10623786D01*
X17863928Y-10609500D01*
X17892500Y-10595214D01*
X18106786Y-10595214D02*
X18106786Y-10652357D01*
X18221071Y-10595214D02*
X18221071Y-10652357D01*
X18663928Y-11009500D02*
X18649643Y-10995214D01*
X18621071Y-10952357D01*
X18606786Y-10923786D01*
X18592500Y-10880929D01*
X18578214Y-10809500D01*
X18578214Y-10752357D01*
X18592500Y-10680929D01*
X18606786Y-10638072D01*
X18621071Y-10609500D01*
X18649643Y-10566643D01*
X18663928Y-10552357D01*
X18906786Y-10595214D02*
X18849643Y-10595214D01*
X18821071Y-10609500D01*
X18806786Y-10623786D01*
X18778214Y-10666643D01*
X18763928Y-10723786D01*
X18763928Y-10838072D01*
X18778214Y-10866643D01*
X18792500Y-10880929D01*
X18821071Y-10895214D01*
X18878214Y-10895214D01*
X18906786Y-10880929D01*
X18921071Y-10866643D01*
X18935357Y-10838072D01*
X18935357Y-10766643D01*
X18921071Y-10738072D01*
X18906786Y-10723786D01*
X18878214Y-10709500D01*
X18821071Y-10709500D01*
X18792500Y-10723786D01*
X18778214Y-10738072D01*
X18763928Y-10766643D01*
X19292500Y-10895214D02*
X19292500Y-10595214D01*
X19421071Y-10895214D02*
X19421071Y-10738072D01*
X19406786Y-10709500D01*
X19378214Y-10695214D01*
X19335357Y-10695214D01*
X19306786Y-10709500D01*
X19292500Y-10723786D01*
X19606786Y-10895214D02*
X19578214Y-10880929D01*
X19563928Y-10866643D01*
X19549643Y-10838072D01*
X19549643Y-10752357D01*
X19563928Y-10723786D01*
X19578214Y-10709500D01*
X19606786Y-10695214D01*
X19649643Y-10695214D01*
X19678214Y-10709500D01*
X19692500Y-10723786D01*
X19706786Y-10752357D01*
X19706786Y-10838072D01*
X19692500Y-10866643D01*
X19678214Y-10880929D01*
X19649643Y-10895214D01*
X19606786Y-10895214D01*
X19878214Y-10895214D02*
X19849643Y-10880929D01*
X19835357Y-10852357D01*
X19835357Y-10595214D01*
X20106786Y-10880929D02*
X20078214Y-10895214D01*
X20021071Y-10895214D01*
X19992500Y-10880929D01*
X19978214Y-10852357D01*
X19978214Y-10738072D01*
X19992500Y-10709500D01*
X20021071Y-10695214D01*
X20078214Y-10695214D01*
X20106786Y-10709500D01*
X20121071Y-10738072D01*
X20121071Y-10766643D01*
X19978214Y-10795214D01*
X20235357Y-10880929D02*
X20263929Y-10895214D01*
X20321071Y-10895214D01*
X20349643Y-10880929D01*
X20363929Y-10852357D01*
X20363929Y-10838072D01*
X20349643Y-10809500D01*
X20321071Y-10795214D01*
X20278214Y-10795214D01*
X20249643Y-10780929D01*
X20235357Y-10752357D01*
X20235357Y-10738072D01*
X20249643Y-10709500D01*
X20278214Y-10695214D01*
X20321071Y-10695214D01*
X20349643Y-10709500D01*
X20463928Y-11009500D02*
X20478214Y-10995214D01*
X20506786Y-10952357D01*
X20521071Y-10923786D01*
X20535357Y-10880929D01*
X20549643Y-10809500D01*
X20549643Y-10752357D01*
X20535357Y-10680929D01*
X20521071Y-10638072D01*
X20506786Y-10609500D01*
X20478214Y-10566643D01*
X20463928Y-10552357D01*
M02*
