G04 #@! TF.FileFunction,Copper,L1,Top,Signal*
%FSLAX46Y46*%
G04 Gerber Fmt 4.6, Leading zero omitted, Abs format (unit mm)*
G04 Created by KiCad (PCBNEW 4.0.2-stable) date 3/15/2016 11:14:05 PM*
%MOMM*%
G01*
G04 APERTURE LIST*
%ADD10C,0.100000*%
%ADD11C,1.300000*%
%ADD12R,2.499360X1.800860*%
%ADD13R,1.060000X0.650000*%
%ADD14R,1.300000X0.700000*%
%ADD15R,1.700000X0.900000*%
%ADD16R,2.032000X2.032000*%
%ADD17O,2.032000X2.032000*%
%ADD18R,1.727200X2.032000*%
%ADD19O,1.727200X2.032000*%
%ADD20R,1.600000X1.000000*%
%ADD21R,1.000000X1.600000*%
%ADD22R,4.500000X1.750000*%
%ADD23C,0.700000*%
%ADD24C,0.600000*%
%ADD25C,1.000000*%
%ADD26C,0.500000*%
%ADD27C,0.750000*%
%ADD28C,2.000000*%
%ADD29C,0.250000*%
G04 APERTURE END LIST*
D10*
D11*
X149537000Y-83078500D03*
X147497000Y-83078500D03*
X151577000Y-83078500D03*
X146477000Y-85618500D03*
X148517000Y-85618500D03*
X150557000Y-85618500D03*
D12*
X145084020Y-75033000D03*
X149081980Y-75033000D03*
X155092020Y-75387000D03*
X159089980Y-75387000D03*
D13*
X145008000Y-69506000D03*
X145008000Y-68556000D03*
X145008000Y-67606000D03*
X142808000Y-67606000D03*
X142808000Y-69506000D03*
X158953000Y-70241000D03*
X158953000Y-69291000D03*
X158953000Y-68341000D03*
X156753000Y-68341000D03*
X156753000Y-70241000D03*
D14*
X146829000Y-67545000D03*
X146829000Y-69445000D03*
X160774000Y-68341000D03*
X160774000Y-70241000D03*
D15*
X141749000Y-71043000D03*
X141749000Y-73943000D03*
X154678000Y-67333000D03*
X154678000Y-70233000D03*
D16*
X163795000Y-87568000D03*
D17*
X161255000Y-87568000D03*
D18*
X157580000Y-63800000D03*
D19*
X155040000Y-63800000D03*
X152500000Y-63800000D03*
X149960000Y-63800000D03*
D20*
X161382000Y-81877000D03*
X161382000Y-84877000D03*
X163795000Y-81877000D03*
X163795000Y-84877000D03*
D21*
X143805000Y-71477000D03*
X146805000Y-71477000D03*
X157750000Y-72085000D03*
X160750000Y-72085000D03*
D22*
X151020000Y-67338000D03*
X151020000Y-70588000D03*
X164200000Y-66875000D03*
X164200000Y-70125000D03*
D23*
X161917000Y-73736000D03*
X148480000Y-72620000D03*
D24*
X148400000Y-68900000D03*
X162300000Y-68500000D03*
D25*
X161382000Y-84877000D02*
X161382000Y-87441000D01*
X161382000Y-87441000D02*
X161255000Y-87568000D01*
X163795000Y-84877000D02*
X161382000Y-84877000D01*
X160750000Y-72569000D02*
X161917000Y-73736000D01*
X160750000Y-72085000D02*
X160750000Y-72569000D01*
D26*
X158953000Y-69291000D02*
X159824000Y-69291000D01*
X159824000Y-69291000D02*
X160774000Y-70241000D01*
D25*
X160774000Y-70241000D02*
X160774000Y-72061000D01*
X160774000Y-72061000D02*
X160750000Y-72085000D01*
X147337000Y-71477000D02*
X148480000Y-72620000D01*
X146805000Y-71477000D02*
X147337000Y-71477000D01*
X146829000Y-69445000D02*
X146829000Y-71453000D01*
X146829000Y-71453000D02*
X146805000Y-71477000D01*
D26*
X145008000Y-68556000D02*
X145940000Y-68556000D01*
X145940000Y-68556000D02*
X146829000Y-69445000D01*
D25*
X161382000Y-81877000D02*
X161382000Y-81676980D01*
X161382000Y-81676980D02*
X155092020Y-75387000D01*
X153500000Y-78400000D02*
X148800270Y-78400000D01*
X148800270Y-78400000D02*
X145433270Y-75033000D01*
X145433270Y-75033000D02*
X145084020Y-75033000D01*
X156877000Y-81777000D02*
X153500000Y-78400000D01*
X156877000Y-81877000D02*
X156877000Y-81777000D01*
X161382000Y-81877000D02*
X156877000Y-81877000D01*
X166500000Y-82782000D02*
X166500000Y-86879000D01*
X166500000Y-86879000D02*
X165811000Y-87568000D01*
X165811000Y-87568000D02*
X163795000Y-87568000D01*
X163795000Y-81877000D02*
X165595000Y-81877000D01*
X165595000Y-81877000D02*
X166500000Y-82782000D01*
X163951000Y-82033000D02*
X163795000Y-81877000D01*
X161382000Y-81877000D02*
X161082000Y-81877000D01*
X161082000Y-81877000D02*
X161058000Y-81853000D01*
X154522000Y-70077000D02*
X154678000Y-70233000D01*
X163795000Y-87568000D02*
X163922000Y-87568000D01*
X164095000Y-81877000D02*
X163795000Y-81877000D01*
X161382000Y-81877000D02*
X163795000Y-81877000D01*
X156753000Y-70241000D02*
X154686000Y-70241000D01*
X154686000Y-70241000D02*
X154678000Y-70233000D01*
X157750000Y-72085000D02*
X157750000Y-71238000D01*
X157750000Y-71238000D02*
X156753000Y-70241000D01*
X156493590Y-72085000D02*
X157750000Y-72085000D01*
X155092020Y-75387000D02*
X155092020Y-73486570D01*
X155092020Y-73486570D02*
X156493590Y-72085000D01*
X141749000Y-73943000D02*
X143740020Y-73943000D01*
X143740020Y-73943000D02*
X144449020Y-74652000D01*
X143805000Y-71477000D02*
X143805000Y-74007980D01*
X143805000Y-74007980D02*
X144449020Y-74652000D01*
X142808000Y-69506000D02*
X143805000Y-70503000D01*
X143805000Y-70503000D02*
X143805000Y-71477000D01*
X164300000Y-74599000D02*
X164200000Y-74499000D01*
X164200000Y-74499000D02*
X164200000Y-70125000D01*
X163512000Y-75387000D02*
X164300000Y-74599000D01*
X159089980Y-75387000D02*
X163512000Y-75387000D01*
D27*
X159089980Y-70908980D02*
X159089980Y-75387000D01*
X158953000Y-70772000D02*
X159089980Y-70908980D01*
X158953000Y-70241000D02*
X158953000Y-70772000D01*
X146827730Y-73128000D02*
X148732730Y-75033000D01*
X148732730Y-75033000D02*
X149081980Y-75033000D01*
X145813000Y-73128000D02*
X146827730Y-73128000D01*
X145305000Y-72620000D02*
X145813000Y-73128000D01*
X145305000Y-70334000D02*
X145305000Y-72620000D01*
X145008000Y-70037000D02*
X145305000Y-70334000D01*
X145008000Y-69506000D02*
X145008000Y-70037000D01*
D28*
X149081980Y-75033000D02*
X151020000Y-73094980D01*
X151020000Y-73094980D02*
X151020000Y-70588000D01*
D25*
X164200000Y-64700000D02*
X163300000Y-63800000D01*
X163300000Y-63800000D02*
X157580000Y-63800000D01*
X164200000Y-66875000D02*
X164200000Y-64700000D01*
X154678000Y-67333000D02*
X154678000Y-64162000D01*
X154678000Y-64162000D02*
X155040000Y-63800000D01*
X156753000Y-68341000D02*
X156753000Y-67558000D01*
X156753000Y-67558000D02*
X156528000Y-67333000D01*
X156528000Y-67333000D02*
X154678000Y-67333000D01*
X151020000Y-67338000D02*
X152500000Y-65858000D01*
X152500000Y-65858000D02*
X152500000Y-63800000D01*
X142808000Y-67606000D02*
X146614000Y-63800000D01*
X146614000Y-63800000D02*
X149960000Y-63800000D01*
X141749000Y-71043000D02*
X141349000Y-71043000D01*
X141349000Y-71043000D02*
X140987000Y-70681000D01*
X140987000Y-70681000D02*
X140987000Y-68429000D01*
X140987000Y-68429000D02*
X141810000Y-67606000D01*
X141810000Y-67606000D02*
X142808000Y-67606000D01*
D29*
X146900000Y-67400000D02*
X146900000Y-67474000D01*
X146900000Y-67474000D02*
X146829000Y-67545000D01*
X148400000Y-68900000D02*
X146900000Y-67400000D01*
X147129000Y-67545000D02*
X146829000Y-67545000D01*
X146829000Y-67545000D02*
X145069000Y-67545000D01*
X145069000Y-67545000D02*
X145008000Y-67606000D01*
X162300000Y-68500000D02*
X160933000Y-68500000D01*
X160933000Y-68500000D02*
X160774000Y-68341000D01*
D26*
X160774000Y-68341000D02*
X158953000Y-68341000D01*
M02*
