G04 #@! TF.FileFunction,Soldermask,Top*
%FSLAX46Y46*%
G04 Gerber Fmt 4.6, Leading zero omitted, Abs format (unit mm)*
G04 Created by KiCad (PCBNEW 4.0.2-stable) date 3/15/2016 11:14:05 PM*
%MOMM*%
G01*
G04 APERTURE LIST*
%ADD10C,0.100000*%
%ADD11C,1.300000*%
%ADD12C,2.100000*%
%ADD13R,2.499360X1.800860*%
%ADD14R,1.060000X0.650000*%
%ADD15R,1.300000X0.700000*%
%ADD16R,1.700000X0.900000*%
%ADD17R,2.032000X2.032000*%
%ADD18O,2.032000X2.032000*%
%ADD19R,1.727200X2.032000*%
%ADD20O,1.727200X2.032000*%
%ADD21R,1.600000X1.000000*%
%ADD22R,1.000000X1.600000*%
%ADD23R,4.500000X1.750000*%
G04 APERTURE END LIST*
D10*
D11*
X149537000Y-83078500D03*
X147497000Y-83078500D03*
X151577000Y-83078500D03*
X146477000Y-85618500D03*
X148517000Y-85618500D03*
X150557000Y-85618500D03*
D12*
X155027000Y-87918500D03*
X143027000Y-87918500D03*
D13*
X145084020Y-75033000D03*
X149081980Y-75033000D03*
X155092020Y-75387000D03*
X159089980Y-75387000D03*
D14*
X145008000Y-69506000D03*
X145008000Y-68556000D03*
X145008000Y-67606000D03*
X142808000Y-67606000D03*
X142808000Y-69506000D03*
X158953000Y-70241000D03*
X158953000Y-69291000D03*
X158953000Y-68341000D03*
X156753000Y-68341000D03*
X156753000Y-70241000D03*
D15*
X146829000Y-67545000D03*
X146829000Y-69445000D03*
X160774000Y-68341000D03*
X160774000Y-70241000D03*
D16*
X141749000Y-71043000D03*
X141749000Y-73943000D03*
X154678000Y-67333000D03*
X154678000Y-70233000D03*
D17*
X163795000Y-87568000D03*
D18*
X161255000Y-87568000D03*
D19*
X157580000Y-63800000D03*
D20*
X155040000Y-63800000D03*
X152500000Y-63800000D03*
X149960000Y-63800000D03*
D21*
X161382000Y-81877000D03*
X161382000Y-84877000D03*
X163795000Y-81877000D03*
X163795000Y-84877000D03*
D22*
X143805000Y-71477000D03*
X146805000Y-71477000D03*
X157750000Y-72085000D03*
X160750000Y-72085000D03*
D23*
X151020000Y-67338000D03*
X151020000Y-70588000D03*
X164200000Y-66875000D03*
X164200000Y-70125000D03*
M02*
